{
    "asset" : {
        "generator" : "Khronos glTF Blender I/O v1.6.16",
        "version" : "2.0"
    },
    "scene" : 0,
    "scenes" : [
        {
            "name" : "Scene",
            "nodes" : [
                0,
                1,
                2,
                3,
                4,
                5,
                6,
                7,
                8,
                9,
                10,
                11,
                12
            ]
        }
    ],
    "nodes" : [
        {
            "mesh" : 0,
            "name" : "Plane",
            "translation" : [
                0.9961609840393066,
                11.041990280151367,
                -0.02860764041543007
            ]
        },
        {
            "name" : "Camera face",
            "rotation" : [
                0.7304270267486572,
                0.005915679037570953,
                0.0035623807925730944,
                0.6829559206962585
            ],
            "translation" : [
                -0.46275898814201355,
                5.662885665893555,
                6.668620586395264
            ]
        },
        {
            "name" : "Camera.001",
            "rotation" : [
                0.7123419046401978,
                -0.14204326272010803,
                0.16157129406929016,
                0.6680474877357483
            ],
            "translation" : [
                -3.327660083770752,
                5.662885665893555,
                6.668620586395264
            ]
        },
        {
            "name" : "Camera face.001",
            "rotation" : [
                0.7138839960098267,
                0.15359416604042053,
                -0.1546154022216797,
                0.6654866933822632
            ],
            "translation" : [
                2.527733564376831,
                5.662885665893555,
                6.668620586395264
            ]
        },
        {
            "name" : "Area.005",
            "rotation" : [
                0.7216295003890991,
                -0.3859519958496094,
                0.08786628395318985,
                0.5679537057876587
            ],
            "translation" : [
                -8.022154808044434,
                7.163680553436279,
                8.126897811889648
            ]
        },
        {
            "name" : "Area.006",
            "rotation" : [
                0.7216295003890991,
                -0.3859519958496094,
                0.08786628395318985,
                0.5679537057876587
            ],
            "translation" : [
                -8.022154808044434,
                7.163680553436279,
                8.126897811889648
            ]
        },
        {
            "name" : "Area.007",
            "rotation" : [
                0.7216295003890991,
                -0.3859519958496094,
                0.08786628395318985,
                0.5679537057876587
            ],
            "translation" : [
                -8.022154808044434,
                7.163680553436279,
                8.126897811889648
            ]
        },
        {
            "name" : "Area.008",
            "rotation" : [
                0.7216295003890991,
                -0.3859519958496094,
                0.08786628395318985,
                0.5679537057876587
            ],
            "translation" : [
                -8.022154808044434,
                7.163680553436279,
                8.126897811889648
            ]
        },
        {
            "name" : "Area.009",
            "rotation" : [
                0.7216295003890991,
                -0.3859519958496094,
                0.08786628395318985,
                0.5679537057876587
            ],
            "translation" : [
                -8.022154808044434,
                7.163680553436279,
                8.126897811889648
            ]
        },
        {
            "name" : "Area",
            "rotation" : [
                0.5330926775932312,
                -0.13021841645240784,
                -0.34503263235092163,
                0.7614513039588928
            ],
            "translation" : [
                3.5579774379730225,
                7.163680553436279,
                8.126897811889648
            ]
        },
        {
            "name" : "Area.002",
            "rotation" : [
                0.5330926775932312,
                -0.13021841645240784,
                -0.34503263235092163,
                0.7614513039588928
            ],
            "translation" : [
                3.5579774379730225,
                7.163680553436279,
                8.126897811889648
            ]
        },
        {
            "name" : "Area.003",
            "rotation" : [
                0.5330926775932312,
                -0.13021841645240784,
                -0.34503263235092163,
                0.7614513039588928
            ],
            "translation" : [
                3.5579774379730225,
                7.163680553436279,
                8.126897811889648
            ]
        },
        {
            "name" : "Area.004",
            "rotation" : [
                0.5330926775932312,
                -0.13021841645240784,
                -0.34503263235092163,
                0.7614513039588928
            ],
            "translation" : [
                3.5579774379730225,
                7.163680553436279,
                8.126897811889648
            ]
        }
    ],
    "materials" : [
        {
            "doubleSided" : true,
            "emissiveFactor" : [
                0.01009438722763134,
                0.01009438722763134,
                0.01009438722763134
            ],
            "name" : "Material.004",
            "pbrMetallicRoughness" : {
                "baseColorTexture" : {
                    "index" : 0
                },
                "metallicFactor" : 0,
                "roughnessFactor" : 0.6727272868156433
            }
        }
    ],
    "meshes" : [
        {
            "name" : "Plane.002",
            "primitives" : [
                {
                    "attributes" : {
                        "POSITION" : 0,
                        "NORMAL" : 1,
                        "TEXCOORD_0" : 2
                    },
                    "indices" : 3,
                    "material" : 0
                }
            ]
        }
    ],
    "textures" : [
        {
            "sampler" : 0,
            "source" : 0
        }
    ],
    "images" : [
        {
            "bufferView" : 4,
            "mimeType" : "image/png",
            "name" : "all"
        }
    ],
    "accessors" : [
        {
            "bufferView" : 0,
            "componentType" : 5126,
            "count" : 2568,
            "max" : [
                0.7917953729629517,
                -2.404512405395508,
                1.1048657894134521
            ],
            "min" : [
                -3.7203316688537598,
                -6.906197547912598,
                -0.6673927903175354
            ],
            "type" : "VEC3"
        },
        {
            "bufferView" : 1,
            "componentType" : 5126,
            "count" : 2568,
            "type" : "VEC3"
        },
        {
            "bufferView" : 2,
            "componentType" : 5126,
            "count" : 2568,
            "type" : "VEC2"
        },
        {
            "bufferView" : 3,
            "componentType" : 5123,
            "count" : 13872,
            "type" : "SCALAR"
        }
    ],
    "bufferViews" : [
        {
            "buffer" : 0,
            "byteLength" : 30816,
            "byteOffset" : 0
        },
        {
            "buffer" : 0,
            "byteLength" : 30816,
            "byteOffset" : 30816
        },
        {
            "buffer" : 0,
            "byteLength" : 20544,
            "byteOffset" : 61632
        },
        {
            "buffer" : 0,
            "byteLength" : 27744,
            "byteOffset" : 82176
        },
        {
            "buffer" : 0,
            "byteLength" : 1536184,
            "byteOffset" : 109920
        }
    ],
    "samplers" : [
        {
            "magFilter" : 9729,
            "minFilter" : 9987
        }
    ],
    "buffers" : [
        {
            "byteLength" : 1646104,
            "uri" : "data:application/octet-stream;base64,"
        }
    ]
}
