<svg xmlns="http://www.w3.org/2000/svg" viewBox="0 0 370.94 70.54"><defs><style>.cls-1{fill:#fff;}</style></defs><g id="Calque_2" data-name="Calque 2"><g id="Calque_1-2" data-name="Calque 1"><path class="cls-1" d="M16.43,14.42H0V.77H49.49L47.28,7.5l-2.21,6.92H32.19l.29,2.69V69.48h-16Z"/><path class="cls-1" d="M81.2,36.42V49.88H55.55V36.42Z"/><path class="cls-1" d="M105.32,12.78H98.5L104.75.86h21.14l21.53,68.62H130.89L127,55.74,123.3,56H109.94l-3.27-.29-3.94,13.74H87.26Zm18,29.89L117,19.8l-6.72,22.87Z"/><path class="cls-1" d="M155.39,1.35c3.08-.39,5.9-.69,8.46-.92S169.14.1,172,.1a54.9,54.9,0,0,1,10.52,1,28.31,28.31,0,0,1,9.37,3.5,19.56,19.56,0,0,1,6.68,6.73,20.58,20.58,0,0,1,2.55,10.76,21,21,0,0,1-1,6.73,22.74,22.74,0,0,1-2.5,5.24A21.1,21.1,0,0,1,194.31,38a29.07,29.07,0,0,1-3.55,2.83l-.48.29q2.59,4.23,4.47,7.4t4.08,6.82l4.09,6.78c1.24,2.08,2.27,3.83,3.07,5.24a20.91,20.91,0,0,0,1.2,2H189.6L171.44,37.77V69.48H155.39Zm16.05,35.84,3.37-1.54q1.24-.57,3-1.44A16.29,16.29,0,0,0,181.15,32a13,13,0,0,0,2.78-3.31,9,9,0,0,0,1.16-4.71,12.26,12.26,0,0,0-.87-4.95,8,8,0,0,0-2.4-3.17,9.72,9.72,0,0,0-3.6-1.73,18.14,18.14,0,0,0-4.47-.53h-1.11a6.78,6.78,0,0,0-1.2.1Z"/><path class="cls-1" d="M249.38,44.88H239.29l6.34-12.3h18.64V67.37a51.74,51.74,0,0,1-10.71,2.54,75.1,75.1,0,0,1-9,.63,38.15,38.15,0,0,1-14.7-2.6,28.27,28.27,0,0,1-10.38-7.2,29.71,29.71,0,0,1-6.15-11.06,47.18,47.18,0,0,1-2-14.12,46,46,0,0,1,2.12-14.23A32.37,32.37,0,0,1,219.64,10a27.91,27.91,0,0,1,10.13-7.4A34.34,34.34,0,0,1,243.61,0a55.78,55.78,0,0,1,8.7.67,43.63,43.63,0,0,1,9.37,2.79l-6.54,12a20,20,0,0,0-4.42-1.2,33.68,33.68,0,0,0-5.57-.43q-8.55,0-12.93,5.38t-4.37,16.34q0,10.95,4.33,16t13.07,5.09a20.67,20.67,0,0,0,4.13-.38Z"/><path class="cls-1" d="M275.13.77h40.46q-1,3.65-1.92,6.92t-1.92,6.73H290.61a9.65,9.65,0,0,0,.09,1.1,10.12,10.12,0,0,1,.1,1.11V26.72h19.41V40.46H290.8V53.62l-.19,2.21H316V69.48H275.13Z"/><path class="cls-1" d="M337.89,14.42H321.45V.77h49.49L368.73,7.5l-2.21,6.92H353.65l.28,2.69V69.48h-16Z"/></g></g></svg>